<svg width="168" height="41" viewBox="0 0 168 41" fill="none" xmlns="http://www.w3.org/2000/svg">
<path d="M159.506 0.867188H165.605V13.0641H159.506V0.867188ZM148.951 6.96562L148.6 7.0829C148.6 7.0829 150.71 8.84206 150.71 8.95934C150.828 9.07662 150.945 9.07661 150.828 9.42845C150.711 9.78028 150.593 10.1321 150.593 10.1321C150.593 10.1321 152.47 9.78028 152.704 9.663C152.939 9.663 153.056 9.663 153.056 9.89756C153.056 10.1321 152.939 12.1258 152.939 12.1258H153.525C153.525 12.1258 153.408 10.0148 153.408 9.89756C153.408 9.663 153.525 9.663 153.76 9.663C153.994 9.663 155.871 10.1321 155.871 10.1321C155.871 10.1321 155.753 9.663 155.636 9.42845C155.519 9.07661 155.636 9.07662 155.753 8.95934C155.871 8.84206 157.864 7.0829 157.864 7.0829L157.513 6.96562C157.278 6.84834 157.395 6.73106 157.395 6.61379C157.395 6.49651 157.747 5.32373 157.747 5.32373C157.747 5.32373 156.809 5.55829 156.692 5.55829C156.574 5.55829 156.457 5.55829 156.457 5.44101C156.457 5.32373 156.223 4.85462 156.223 4.85462C156.223 4.85462 155.167 6.0274 155.05 6.14468C154.815 6.37923 154.581 6.14468 154.698 5.91012C154.698 5.67557 155.284 3.21274 155.284 3.21274C155.284 3.21274 154.698 3.56457 154.463 3.68185C154.229 3.79913 154.112 3.79913 154.112 3.56457C153.994 3.33002 153.291 2.03996 153.291 1.92269C153.291 1.92269 152.587 3.33002 152.47 3.56457C152.352 3.79913 152.235 3.79913 152.118 3.68185C151.883 3.56457 151.297 3.21274 151.297 3.21274C151.297 3.21274 151.883 5.67557 151.883 5.91012C151.883 6.14468 151.766 6.26195 151.531 6.14468L150.359 4.85462C150.359 4.85462 150.241 5.20646 150.124 5.32373C150.124 5.44101 150.007 5.55829 149.89 5.44101C149.655 5.44101 148.717 5.20646 148.717 5.20646C148.717 5.20646 149.069 6.37923 149.186 6.49651C149.186 6.61379 149.186 6.84834 148.951 6.96562ZM141.094 0.867188H147.192V13.0641H141.094V0.867188Z" fill="#FF0000"/>
<path d="M166.89 37.459C166.421 38.5145 165.483 38.8663 164.896 38.8663C164.193 38.8663 162.082 38.7491 162.082 33.237C162.082 33.237 162.082 22.0957 162.082 21.392C162.082 17.7564 159.267 14.8244 151.996 14.8244C144.138 14.8244 144.021 18.6946 144.021 19.6328C143.904 20.6883 144.49 21.8611 146.484 21.8611C148.243 21.8611 148.712 19.8674 148.946 19.1637C149.181 18.3428 149.298 15.9972 152.465 15.9972C155.162 15.9972 156.804 18.3428 156.921 21.7438C156.921 22.3302 156.921 22.682 156.921 23.0339C156.921 23.2684 156.921 23.3857 156.921 23.6203V23.7375C156.687 24.9103 156.1 25.4967 155.045 25.9658C153.638 26.6695 149.533 27.2559 149.064 27.3731C147.422 27.725 142.848 28.8978 142.965 33.7061C143.083 38.3972 147.774 40.0391 151.057 39.9218C154.224 39.8046 156.1 38.5145 156.921 37.8109C157.39 37.459 157.39 37.459 157.742 37.9281C158.211 38.3972 159.736 39.9218 163.372 39.9218C167.124 39.9218 167.594 38.1627 167.828 37.5763C167.945 37.2245 167.124 36.8726 166.89 37.459ZM152.23 38.7491C148.946 38.7491 148.126 36.0517 148.126 34.6444C148.126 33.3543 148.829 30.6569 152.113 28.7805C152.113 28.7805 153.638 27.8423 156.569 26.6695C156.687 26.6695 156.804 26.6695 156.804 26.6695C156.804 26.6695 156.921 26.7868 156.921 26.904V27.0213V27.1386V32.0642C156.921 35.9344 155.045 38.7491 152.23 38.7491ZM141.441 38.6318C140.972 38.5145 138.04 38.8663 138.04 29.9533C138.04 21.0402 138.04 1.92391 138.04 1.92391C138.04 1.57208 138.04 0.633859 136.984 0.633859C135.929 0.633859 128.892 0.985692 128.423 1.10297C127.954 1.10297 127.602 1.68936 128.423 1.68936C129.244 1.80663 132.997 2.04119 132.997 8.2569C132.997 11.3061 132.997 14.3553 132.997 16.5836C132.997 16.7009 132.997 16.8182 132.997 16.8182C132.997 17.0527 132.997 17.17 132.879 17.2873C132.879 17.2873 132.879 17.2873 132.879 17.4046C132.762 17.5218 132.645 17.4046 132.293 17.17C131.707 16.7009 129.009 15.059 125.608 15.059C120.096 15.059 113.294 19.0464 113.294 27.2559C113.294 36.0517 119.51 40.2737 125.96 40.2737C129.127 40.2737 131.355 38.8664 132.176 38.3972C133.114 37.8109 132.997 37.9281 133.114 38.7491C133.231 39.3355 133.114 40.5082 134.756 40.391C136.515 40.1564 140.737 39.6873 141.558 39.57C142.379 39.2182 142.144 38.7491 141.441 38.6318ZM126.898 38.9836C121.738 38.9836 119.041 32.8852 119.041 27.0213C119.041 20.571 122.676 16.2318 126.546 16.4663C131.589 16.8182 132.879 20.8056 132.997 27.9595C132.997 28.4286 132.997 28.8978 132.997 29.4841C132.879 36.5208 129.947 38.9836 126.898 38.9836ZM113.177 37.459C112.708 38.5145 111.769 38.8663 111.183 38.8663C110.479 38.8663 108.368 38.7491 108.368 33.237C108.368 33.237 108.368 22.0957 108.368 21.392C108.368 17.7564 105.554 14.8244 98.2825 14.8244C90.4249 14.8244 90.3077 18.6946 90.3077 19.6328C90.1904 20.6883 90.7768 21.8611 92.7705 21.8611C94.5297 21.8611 94.9988 19.8674 95.2333 19.1637C95.4679 18.3428 95.5852 15.9972 98.7517 15.9972C101.449 15.9972 103.208 18.3428 103.208 21.8611V21.9784C103.208 22.0957 103.208 22.2129 103.208 22.2129V22.5648C103.208 22.682 103.208 22.9166 103.208 23.0339C103.091 24.793 102.622 25.3794 101.214 26.0831C99.8072 26.7868 95.7024 27.3731 95.2333 27.4904C93.5914 27.8423 89.0176 29.015 89.1349 33.8234C89.2522 38.5145 93.9433 40.1564 97.2271 40.0391C100.394 39.9218 102.27 38.6318 103.091 37.9281C103.56 37.5763 103.56 37.5763 103.912 38.0454C104.381 38.5145 105.906 40.0391 109.541 40.0391C113.294 40.0391 113.763 38.28 113.998 37.6936C114.232 37.2245 113.529 36.8726 113.177 37.459ZM98.6344 38.7491C95.3506 38.7491 94.5297 36.0517 94.5297 34.6444C94.5297 33.3543 95.2333 30.6569 98.5171 28.7805C98.5171 28.7805 100.042 27.8423 102.974 26.6695C103.091 26.6695 103.208 26.6695 103.208 26.6695V26.7868C103.208 26.904 103.208 27.0213 103.208 27.2559V27.1386C103.208 27.1386 103.208 27.1386 103.208 27.2559V32.1815C103.208 35.9344 101.332 38.7491 98.6344 38.7491ZM87.3757 38.6318C86.4375 38.3972 84.7956 37.3417 84.7956 32.1815V22.7993C84.7956 20.571 85.0302 14.8244 76.2344 14.8244C71.6605 14.8244 69.0804 17.17 68.8459 17.2873C68.494 17.6391 68.2595 17.7564 68.1422 17.17C68.0249 16.7009 67.7904 15.9972 67.6731 15.5281C67.5558 15.1763 67.3213 14.8244 66.5003 14.9417C65.6794 15.059 60.5192 15.8799 59.581 16.1145C58.76 16.3491 58.9946 16.7009 59.581 16.8182C60.1673 16.9354 62.982 17.17 62.982 21.9784C62.982 26.7868 62.982 32.0642 62.982 32.0642C62.982 37.9281 61.8092 38.3972 60.7537 38.7491C59.3464 39.1009 60.0501 39.57 60.6365 39.57C60.6365 39.57 71.0742 39.57 71.3087 39.57C72.0124 39.57 72.3642 38.8664 70.9569 38.6318C69.5495 38.3972 68.2595 37.5763 68.2595 33.0025C68.2595 32.5334 68.2595 27.4904 68.2595 26.5522C68.2595 24.0894 67.6731 16.5836 74.4752 16.4663C79.2836 16.3491 79.7527 20.3365 79.7527 22.9166V32.8852C79.7527 36.9899 78.5799 38.28 77.1726 38.5145C75.8825 38.7491 76.1171 39.3355 76.8208 39.3355C77.0553 39.3355 87.7276 39.3355 87.7276 39.3355C88.314 39.57 88.9003 38.9836 87.3757 38.6318ZM58.8773 37.459C58.4082 38.5145 57.47 38.8663 56.8836 38.8663C56.1799 38.8663 54.0689 38.7491 54.0689 33.237C54.0689 33.237 54.0689 22.0957 54.0689 21.392C54.0689 17.7564 51.2543 14.8244 43.983 14.8244C36.1255 14.8244 36.0082 18.6946 36.0082 19.6328C35.8909 20.6883 36.4773 21.8611 38.471 21.8611C40.2302 21.8611 40.6993 19.8674 40.9338 19.1637C41.1684 18.3428 41.2857 15.9972 44.4522 15.9972C47.1495 15.9972 48.7914 18.3428 48.9087 21.7438C48.9087 22.3302 48.9087 22.682 48.9087 23.0339C48.9087 23.2684 48.9087 23.503 48.7914 23.6203V23.7375C48.5569 24.9103 47.9705 25.4967 46.915 25.9658C45.5077 26.6695 41.4029 27.2559 40.9338 27.3731C39.2919 27.725 34.7181 28.8978 34.8354 33.7061C34.9527 38.3972 39.6438 40.0391 42.9275 39.9218C46.094 39.8046 47.9705 38.5145 48.7914 37.8109C49.2605 37.459 49.2605 37.459 49.6124 37.9281C50.0815 38.3972 51.6061 39.9218 55.2417 39.9218C58.9946 39.9218 59.4637 38.1627 59.6982 37.5763C59.9328 37.2245 59.1118 36.8726 58.8773 37.459ZM44.2176 38.7491C40.9338 38.7491 40.1129 36.0517 40.1129 34.6444C40.1129 33.237 40.8166 30.6569 44.1003 28.7805C44.1003 28.7805 45.6249 27.8423 48.5569 26.6695C48.6741 26.6695 48.7914 26.6695 48.7914 26.6695C48.7914 26.6695 48.9087 26.7868 48.9087 26.904C48.9087 26.904 48.9087 27.0213 48.9087 27.1386V27.2559V32.1815C48.9087 35.9344 47.0323 38.7491 44.2176 38.7491ZM32.959 28.5459C31.7862 32.2988 29.5579 38.3972 21.4658 38.6318C13.0218 38.7491 7.97884 33.0025 7.74429 22.3302C7.39245 10.9543 12.3181 2.27574 19.9412 2.04119C28.5024 1.92391 31.5516 12.1271 31.6689 13.6517C31.7862 14.8244 33.3108 14.7072 33.3108 13.5344C33.3108 12.948 32.6071 2.86213 32.3726 1.68936C32.138 0.516581 31.1998 0.985692 30.9652 1.4548C30.848 1.80663 31.0825 1.10297 30.6134 2.15847C30.1443 3.21397 28.8542 2.62758 28.3851 2.5103C26.9778 1.92391 24.2804 0.516581 19.9412 0.633859C9.97256 0.868414 -0.230587 8.2569 0.00396845 21.1574C0.238524 33.7061 10.3244 40.7428 19.7066 40.6255C28.2679 40.5082 33.0762 35.1135 34.4836 28.8978C34.9527 27.3731 33.4281 27.0213 32.959 28.5459Z" fill="black"/>
</svg>
