<svg width="20" height="16" viewBox="0 0 20 16" fill="none" xmlns="http://www.w3.org/2000/svg">
<path d="M10.4583 0.210119C10.059 0.0299804 9.58958 0.101717 9.2625 0.392515L4.57639 4.5556H1.66667C0.746181 4.5556 0 5.30178 0 6.19102V9.4931C0 10.4136 0.746181 11.1285 1.66667 11.1285H4.57778L9.26181 15.2917C9.46958 15.4762 9.73333 15.5728 10 15.5728C10.1541 15.5728 10.3115 15.5402 10.4573 15.474C10.8566 15.295 11.1108 14.899 11.1108 14.4615V1.22227C11.0799 0.785119 10.8576 0.388939 10.4583 0.210119ZM17.8438 7.85769L19.4767 6.2247C19.8023 5.89918 19.8023 5.37192 19.4767 5.04623C19.1512 4.72053 18.624 4.72071 18.2983 5.04623L16.6667 6.71185L15.0035 5.07644C14.678 4.75092 14.1507 4.75092 13.825 5.07644C13.4993 5.40196 13.4995 5.92921 13.825 6.25491L15.458 7.88789L13.825 9.52088C13.4995 9.8464 13.4995 10.3737 13.825 10.6994C14.1505 11.0248 14.6778 11.0251 15.0035 10.6994L16.6667 9.06602L18.2997 10.699C18.6251 11.0245 19.1524 11.0247 19.4781 10.699C19.8036 10.3735 19.8036 9.84623 19.4781 9.52053L17.8438 7.85769Z" fill="#333333"/>
</svg>
