<svg width="25" height="22" viewBox="0 0 25 22" fill="none" xmlns="http://www.w3.org/2000/svg">
<path d="M24.4874 3.52836C24.2007 2.19754 23.3601 1.14847 22.2941 0.790124C20.3467 0.125 12.5569 0.125 12.5569 0.125C12.5569 0.125 4.76746 0.125 2.82006 0.764907C1.77459 1.12288 0.913513 2.19773 0.626741 3.52836C0.114258 5.95905 0.114258 11 0.114258 11C0.114258 11 0.114258 16.0664 0.626741 18.4716C0.913816 19.8023 1.75408 20.8513 2.82021 21.2097C4.78797 21.875 12.5572 21.875 12.5572 21.875C12.5572 21.875 20.3467 21.875 22.2941 21.2351C23.3602 20.8769 24.2007 19.8279 24.4877 18.4972C25.0001 16.0664 25.0001 11.0256 25.0001 11.0256C25.0001 11.0256 25.0206 5.95905 24.4874 3.52836ZM10.0768 15.657V6.343L16.5544 11L10.0768 15.657Z" fill="#26374A"/>
</svg>
