<svg width="25" height="24" viewBox="0 0 25 24" fill="none" xmlns="http://www.w3.org/2000/svg">
<g clip-path="url(#clip0_740:3676)">
<path d="M22.8257 0H2.28754C1.33154 0 0.556641 0.774902 0.556641 1.7309V22.2691C0.556641 23.2251 1.33154 24 2.28754 24H22.8257C23.7817 24 24.5566 23.2251 24.5566 22.2691V1.7309C24.5566 0.774902 23.7817 0 22.8257 0V0ZM9.06958 18.1406H6.14703V9.34808H9.06958V18.1406ZM7.6084 8.14746H7.58936C6.60864 8.14746 5.97437 7.47235 5.97437 6.6286C5.97437 5.76581 6.62805 5.10938 7.62781 5.10938C8.62756 5.10938 9.2428 5.76581 9.26184 6.6286C9.26184 7.47235 8.62756 8.14746 7.6084 8.14746ZM19.6077 18.1406H16.6855V13.4368C16.6855 12.2547 16.2623 11.4485 15.2049 11.4485C14.3976 11.4485 13.9167 11.9923 13.7054 12.5173C13.6282 12.7051 13.6093 12.9677 13.6093 13.2305V18.1406H10.687C10.687 18.1406 10.7252 10.173 10.687 9.34808H13.6093V10.593C13.9977 9.9939 14.6926 9.14172 16.2431 9.14172C18.1659 9.14172 19.6077 10.3984 19.6077 13.099V18.1406Z" fill="#26374A"/>
</g>
<defs>
<clipPath id="clip0_740:3676">
<rect width="24" height="24" fill="white" transform="translate(0.556641)"/>
</clipPath>
</defs>
</svg>
