<svg width="25" height="24" viewBox="0 0 25 24" fill="none" xmlns="http://www.w3.org/2000/svg">
<g clip-path="url(#clip0_740:3672)">
<path d="M24.7546 7.05607C24.6984 5.78085 24.4922 4.90416 24.1968 4.14449C23.892 3.33812 23.4232 2.61617 22.809 2.01602C22.2088 1.40652 21.4821 0.932921 20.6851 0.632936C19.921 0.337529 19.0489 0.131312 17.7737 0.0750879C16.4889 0.0141019 16.0811 0 12.8226 0C9.5642 0 9.15634 0.0141019 7.87637 0.0703262C6.60116 0.126551 5.72446 0.332951 4.96498 0.628174C4.15842 0.932922 3.43648 1.40176 2.83633 2.01602C2.22684 2.61617 1.75342 3.34288 1.45325 4.13991C1.15784 4.90416 0.951625 5.77609 0.8954 7.0513C0.834414 8.33604 0.820312 8.7439 0.820312 12.0023C0.820312 15.2608 0.834414 15.6686 0.890639 16.9486C0.946863 18.2238 1.15326 19.1005 1.44867 19.8602C1.75342 20.6666 2.22684 21.3885 2.83633 21.9887C3.43648 22.5982 4.16319 23.0718 4.96022 23.3718C5.72446 23.6672 6.5964 23.8734 7.87179 23.9296C9.15158 23.986 9.55962 23.9999 12.8181 23.9999C16.0765 23.9999 16.4844 23.986 17.7643 23.9296C19.0395 23.8734 19.9162 23.6672 20.6757 23.3718C22.2887 22.7482 23.5639 21.4729 24.1875 19.8602C24.4827 19.096 24.6891 18.2238 24.7453 16.9486C24.8015 15.6686 24.8156 15.2608 24.8156 12.0023C24.8156 8.7439 24.8109 8.33604 24.7546 7.05607ZM22.5934 16.8549C22.5418 18.027 22.3449 18.6599 22.1808 19.0819C21.7775 20.1274 20.9477 20.9572 19.9021 21.3605C19.4802 21.5246 18.8427 21.7215 17.6751 21.7729C16.4093 21.8293 16.0296 21.8433 12.8274 21.8433C9.62518 21.8433 9.24077 21.8293 7.97948 21.7729C6.80737 21.7215 6.17444 21.5246 5.75248 21.3605C5.23218 21.1682 4.75858 20.8634 4.37416 20.4649C3.97565 20.0758 3.6709 19.6069 3.4786 19.0866C3.31451 18.6647 3.11763 18.027 3.06617 16.8596C3.00976 15.5937 2.99584 15.2139 2.99584 12.0117C2.99584 8.80946 3.00976 8.42505 3.06617 7.16394C3.11763 5.99183 3.31451 5.3589 3.4786 4.93694C3.6709 4.41645 3.97565 3.94303 4.37893 3.55843C4.76792 3.15992 5.23676 2.85517 5.75724 2.66306C6.1792 2.49896 6.8169 2.30209 7.98424 2.25044C9.25011 2.19422 9.62994 2.18011 12.832 2.18011C16.039 2.18011 16.4186 2.19422 17.6799 2.25044C18.852 2.30209 19.4849 2.49896 19.9069 2.66306C20.4272 2.85517 20.9008 3.15992 21.2852 3.55843C21.6837 3.94761 21.9885 4.41645 22.1808 4.93694C22.3449 5.3589 22.5418 5.99641 22.5934 7.16394C22.6496 8.42981 22.6637 8.80946 22.6637 12.0117C22.6637 15.2139 22.6496 15.589 22.5934 16.8549Z" fill="#26374A"/>
<path d="M12.8225 5.83789C9.41881 5.83789 6.65723 8.59929 6.65723 12.0032C6.65723 15.407 9.41881 18.1684 12.8225 18.1684C16.2264 18.1684 18.9878 15.407 18.9878 12.0032C18.9878 8.59929 16.2264 5.83789 12.8225 5.83789ZM12.8225 16.0024C10.6144 16.0024 8.82324 14.2115 8.82324 12.0032C8.82324 9.79484 10.6144 8.0039 12.8225 8.0039C15.0308 8.0039 16.8217 9.79484 16.8217 12.0032C16.8217 14.2115 15.0308 16.0024 12.8225 16.0024Z" fill="#26374A"/>
<path d="M20.6727 5.5936C20.6727 6.38844 20.0283 7.03291 19.2333 7.03291C18.4384 7.03291 17.7939 6.38844 17.7939 5.5936C17.7939 4.79859 18.4384 4.1543 19.2333 4.1543C20.0283 4.1543 20.6727 4.79859 20.6727 5.5936Z" fill="#26374A"/>
</g>
<defs>
<clipPath id="clip0_740:3672">
<rect width="24" height="24" fill="white" transform="translate(0.77832)"/>
</clipPath>
</defs>
</svg>
