<svg width="25" height="24" viewBox="0 0 25 24" fill="none" xmlns="http://www.w3.org/2000/svg">
<g clip-path="url(#clip0_740:3678)">
<path d="M24.3359 4.5585C23.4434 4.95 22.4924 5.2095 21.5009 5.3355C22.5209 4.7265 23.2994 3.7695 23.6654 2.616C22.7144 3.183 21.6644 3.5835 20.5454 3.807C19.6424 2.8455 18.3554 2.25 16.9514 2.25C14.2274 2.25 12.0344 4.461 12.0344 7.1715C12.0344 7.5615 12.0674 7.9365 12.1484 8.2935C8.05794 8.094 4.43844 6.1335 2.00694 3.147C1.58244 3.8835 1.33344 4.7265 1.33344 5.634C1.33344 7.338 2.21094 8.8485 3.51894 9.723C2.72844 9.708 1.95294 9.4785 1.29594 9.117C1.29594 9.132 1.29594 9.1515 1.29594 9.171C1.29594 11.562 3.00144 13.548 5.23794 14.0055C4.83744 14.115 4.40094 14.1675 3.94794 14.1675C3.63294 14.1675 3.31494 14.1495 3.01644 14.0835C3.65394 16.032 5.46294 17.4645 7.61394 17.511C5.93994 18.8205 3.81444 19.6095 1.51344 19.6095C1.10994 19.6095 0.722937 19.5915 0.335938 19.542C2.51544 20.9475 5.09844 21.75 7.88394 21.75C16.9379 21.75 21.8879 14.25 21.8879 7.749C21.8879 7.5315 21.8804 7.3215 21.8699 7.113C22.8464 6.42 23.6669 5.5545 24.3359 4.5585Z" fill="#26374A"/>
</g>
<defs>
<clipPath id="clip0_740:3678">
<rect width="24" height="24" fill="white" transform="translate(0.335938)"/>
</clipPath>
</defs>
</svg>
