<svg width="20" height="16" viewBox="0 0 20 16" fill="none" xmlns="http://www.w3.org/2000/svg">
<path d="M12.8938 5.68748C12.5725 5.42704 12.0997 5.47289 11.8391 5.79379C11.5764 6.11379 11.6233 6.58598 11.9445 6.84817C12.2969 7.13748 12.5 7.55623 12.5 7.97186C12.5 8.41467 12.2969 8.83404 11.9434 9.12279C11.6222 9.38517 11.5753 9.85717 11.838 10.1772C11.9854 10.3586 12.2011 10.4522 12.418 10.4522C12.585 10.4522 12.7539 10.3966 12.8927 10.2835C13.5969 9.73435 14 8.89373 14 7.97186C14 7.04998 13.5969 6.26248 12.8938 5.68748ZM14.7844 3.38123C14.465 3.12079 13.9925 3.16567 13.7288 3.48561C13.4661 3.80561 13.5129 4.27779 13.8333 4.53998C14.8938 5.37811 15.5 6.66561 15.5 7.97186C15.5 9.2781 14.8925 10.5375 13.8341 11.4312C13.5138 11.6936 13.4669 12.1656 13.7296 12.4856C13.878 12.6661 14.0927 12.7597 14.3096 12.7597C14.4775 12.7597 14.6455 12.7041 14.7852 12.59C16.1938 11.4656 17 9.78123 17 7.97186C17 6.16248 16.1938 4.53123 14.7844 3.38123ZM16.7 1.04373C16.3806 0.783295 15.9081 0.829138 15.6444 1.14811C15.3817 1.46811 15.4286 1.94029 15.7489 2.20248C17.4969 3.63436 18.5 5.74686 18.5 7.97186C18.5 10.1969 17.4972 12.3375 15.7481 13.7687C15.4278 14.0311 15.3809 14.5031 15.6436 14.8231C15.7906 15.0312 16.0063 15.125 16.225 15.125C16.393 15.125 16.5609 15.0694 16.7006 14.9553C18.7969 13.2375 20 10.7031 20 7.97186C20 5.24061 18.7969 2.76061 16.7 1.04373ZM9.4125 1.09311C9.05313 0.931201 8.63094 0.996982 8.33656 1.25842L4.11875 5.00311H1.5C0.671562 5.00311 0 5.67436 0 6.50186V9.49936C0 10.3269 0.671562 10.9981 1.5 10.9981H4.12L8.33562 14.7419C8.52187 14.9062 8.75937 14.9937 9 14.9937C9.13869 14.9937 9.27997 14.9646 9.41125 14.9051C9.77188 14.7437 10 14.3875 10 13.9969V2.00373C10 1.61092 9.77188 1.25404 9.4125 1.09311Z" fill="#333333"/>
</svg>
