<svg width="17" height="18" viewBox="0 0 17 18" fill="none" xmlns="http://www.w3.org/2000/svg">
<path d="M12.1442 10.8229H11.3871L11.1188 10.5642C12.058 9.47167 12.6234 8.05333 12.6234 6.51042C12.6234 3.07 9.83462 0.28125 6.39421 0.28125C2.95379 0.28125 0.165039 3.07 0.165039 6.51042C0.165039 9.95083 2.95379 12.7396 6.39421 12.7396C7.93712 12.7396 9.35546 12.1742 10.448 11.235L10.7067 11.5033V12.2604L15.4984 17.0425L16.9263 15.6146L12.1442 10.8229ZM6.39421 10.8229C4.00796 10.8229 2.08171 8.89667 2.08171 6.51042C2.08171 4.12417 4.00796 2.19792 6.39421 2.19792C8.78046 2.19792 10.7067 4.12417 10.7067 6.51042C10.7067 8.89667 8.78046 10.8229 6.39421 10.8229Z" fill="white"/>
</svg>
