<svg width="8" height="12" viewBox="0 0 8 12" fill="none" xmlns="http://www.w3.org/2000/svg">
<path d="M0.285937 11.2728C0.372215 11.3177 0.469085 11.3382 0.56615 11.3322C0.663215 11.3262 0.75681 11.2938 0.836888 11.2386L7.77045 6.43849C7.8413 6.3894 7.89919 6.32388 7.93918 6.24753C7.97917 6.17117 8.00006 6.08627 8.00006 6.00007C8.00006 5.91388 7.97917 5.82898 7.93918 5.75262C7.89919 5.67627 7.8413 5.61075 7.77045 5.56166L0.836888 0.761505C0.756872 0.706139 0.663234 0.673718 0.566113 0.667752C0.468993 0.661786 0.372091 0.682502 0.2859 0.727658C0.199708 0.772813 0.127512 0.840688 0.0771286 0.923931C0.026745 1.00717 9.38807e-05 1.10262 6.10424e-05 1.19992V10.8002C4.49987e-05 10.8976 0.0266769 10.9931 0.0770701 11.0764C0.127463 11.1597 0.199695 11.2276 0.285937 11.2728Z" fill="#333333"/>
</svg>
