<svg width="18" height="18" viewBox="0 0 18 18" fill="none" xmlns="http://www.w3.org/2000/svg">
<path d="M12.1275 9L16.8183 4.30922C17.3939 3.73359 17.3939 2.80031 16.8183 2.22422L15.7758 1.18172C15.2002 0.606094 14.2669 0.606094 13.6908 1.18172L9 5.8725L4.30922 1.18172C3.73359 0.606094 2.80031 0.606094 2.22422 1.18172L1.18172 2.22422C0.606094 2.79984 0.606094 3.73312 1.18172 4.30922L5.8725 9L1.18172 13.6908C0.606094 14.2664 0.606094 15.1997 1.18172 15.7758L2.22422 16.8183C2.79984 17.3939 3.73359 17.3939 4.30922 16.8183L9 12.1275L13.6908 16.8183C14.2664 17.3939 15.2002 17.3939 15.7758 16.8183L16.8183 15.7758C17.3939 15.2002 17.3939 14.2669 16.8183 13.6908L12.1275 9Z" fill="#333333"/>
</svg>
