<svg width="35" height="36" viewBox="0 0 35 36" fill="none" xmlns="http://www.w3.org/2000/svg">
<path d="M17.5 0.499756C7.84 0.499756 0 8.33976 0 17.9998C0 27.6598 7.84 35.4998 17.5 35.4998C27.16 35.4998 35 27.6598 35 17.9998C35 8.33976 27.16 0.499756 17.5 0.499756ZM17.5 7.49976C20.8775 7.49976 23.625 10.2473 23.625 13.6248C23.625 17.0023 20.8775 19.7498 17.5 19.7498C14.1225 19.7498 11.375 17.0023 11.375 13.6248C11.375 10.2473 14.1225 7.49976 17.5 7.49976ZM17.5 31.9998C13.9475 31.9998 9.7475 30.5648 6.755 26.9598C9.7125 24.6498 13.44 23.2498 17.5 23.2498C21.56 23.2498 25.2875 24.6498 28.245 26.9598C25.2525 30.5648 21.0525 31.9998 17.5 31.9998Z" fill="#26374A"/>
</svg>
