<svg width="360" height="35" viewBox="0 0 360 35" fill="none" xmlns="http://www.w3.org/2000/svg">
<path d="M66.7913 33.7006H50.0512V1.31738H66.7913V33.7006ZM33.4802 3.79569C33.4802 3.79569 31.4511 7.76098 31.1129 8.09142C30.7747 8.58708 30.6057 8.58708 30.0984 8.42186C29.5911 8.09142 27.9002 7.26532 27.9002 7.26532C27.9002 7.26532 29.422 13.7089 29.422 14.2046C29.5911 14.7002 29.0838 15.1959 28.4075 14.7002C28.2384 14.535 25.3638 11.3958 25.3638 11.3958C25.3638 11.3958 24.6874 12.8828 24.5183 13.2132C24.3493 13.5437 24.1802 13.7089 23.842 13.5437C23.3347 13.3785 20.6292 12.8828 20.6292 12.8828C20.6292 12.8828 21.6438 16.022 21.8129 16.5177C21.982 16.8481 22.1511 17.1785 21.4747 17.509L20.4601 17.8394C20.4601 17.8394 26.0402 22.6308 26.2093 22.796C26.5474 23.1265 26.7165 23.1265 26.5474 23.9526C26.2093 24.7787 26.0402 25.77 26.0402 25.77C26.0402 25.77 31.282 24.6134 31.7893 24.6134C32.2966 24.6134 32.8039 24.7787 32.8039 25.2743C32.8039 25.77 32.4657 31.3875 32.4657 31.3875H34.1566C34.1566 31.3875 33.8184 25.9352 33.8184 25.2743C33.8184 24.7787 34.3257 24.6134 34.833 24.6134C35.3402 24.7787 40.5821 25.77 40.5821 25.77C40.5821 25.77 40.2439 24.6134 40.0748 23.9526C39.7366 23.1265 40.0748 22.9612 40.413 22.796C40.5821 22.6308 46.1621 17.8394 46.1621 17.8394L45.1476 17.509C44.6403 17.1785 44.8094 16.8481 44.8094 16.5177C44.9785 16.1872 45.993 12.8828 45.993 12.8828C45.993 12.8828 43.2876 13.3785 42.7803 13.5437C42.4421 13.7089 42.273 13.3785 42.1039 13.2132C41.9348 12.8828 41.2585 11.3958 41.2585 11.3958C41.2585 11.3958 38.3839 14.7002 38.2148 14.7002C37.7075 15.0307 37.0312 14.7002 37.2002 14.2046C37.2002 13.7089 38.7221 7.26532 38.7221 7.26532C38.7221 7.26532 37.0312 8.25664 36.5239 8.42186C36.1857 8.7523 35.8475 8.7523 35.5093 8.09142C35.5093 7.59576 33.4802 3.79569 33.4802 3.79569ZM16.7401 33.7006V1.31738H0V33.7006H16.7401Z" fill="#FF0000"/>
<path d="M264.97 14.5248H263.448L263.11 13.0378C261.758 14.5248 260.743 14.8553 259.052 14.8553C254.994 14.8553 252.627 11.7161 252.627 7.916C252.458 4.11593 254.825 0.976744 258.883 0.976744C261.927 0.976744 264.294 2.46373 264.632 5.43769H262.265C262.096 3.62027 260.405 2.79417 258.714 2.79417C255.839 2.79417 254.656 5.27247 254.656 7.916C254.656 10.3943 255.839 13.0378 258.714 13.0378C261.081 13.0378 262.434 11.7161 262.603 9.40298H259.052V7.58556H264.97V14.5248ZM266.83 9.73343C266.83 6.75946 268.69 4.61159 271.734 4.61159C274.778 4.61159 276.638 6.75946 276.638 9.73343C276.638 12.7074 274.778 14.8553 271.734 14.8553C268.69 14.8553 266.83 12.7074 266.83 9.73343ZM274.439 9.73343C274.439 8.08122 273.594 6.42902 271.565 6.42902C269.536 6.42902 268.69 8.08122 268.69 9.73343C268.69 11.3856 269.536 13.2031 271.565 13.2031C273.594 13.2031 274.439 11.3856 274.439 9.73343ZM277.483 4.94203H279.85L282.387 12.377L284.754 4.94203H286.952L283.57 14.5248H281.203L277.483 4.94203ZM289.996 10.2291C289.996 11.7161 290.841 13.0378 292.701 13.0378C293.885 13.0378 294.731 12.5422 295.069 11.3856H297.098C296.591 13.5335 294.731 14.69 292.701 14.69C289.658 14.69 287.967 12.5422 287.967 9.56821C287.967 6.75946 289.827 4.44637 292.701 4.44637C295.745 4.44637 297.774 7.25512 297.267 10.0639H289.996V10.2291ZM295.069 8.90732C295.069 7.58556 294.054 6.42902 292.532 6.42902C291.011 6.42902 289.996 7.58556 289.996 8.90732H295.069ZM298.958 4.94203H300.987V6.75946C301.156 5.76814 302.509 4.61159 303.861 4.61159C304.369 4.61159 304.538 4.61159 304.707 4.61159V6.59424C304.369 6.59424 304.031 6.42902 303.692 6.42902C302.171 6.42902 300.987 7.58556 300.987 9.73343V14.3596H298.789V4.94203H298.958ZM306.06 4.94203H308.089V6.42902C308.765 5.4377 309.78 4.77681 311.132 4.77681C313.331 4.77681 314.683 5.93336 314.683 8.08122V14.69H312.485V8.57688C312.485 7.0899 311.809 6.42902 310.625 6.42902C309.103 6.42902 308.258 7.58556 308.258 8.90732V14.5248H306.06V4.94203ZM316.882 4.94203H318.911V6.2638C319.587 5.27247 320.432 4.61159 321.954 4.61159C323.138 4.61159 324.322 5.10725 324.66 6.2638C325.336 5.27247 326.351 4.61159 327.703 4.61159C329.733 4.61159 330.916 5.43769 330.916 7.916V14.5248H328.718V8.90732C328.718 7.42034 328.549 6.2638 326.858 6.2638C325.336 6.2638 324.829 7.25512 324.829 8.90732V14.5248H322.631V8.41166C322.631 7.0899 322.293 6.42902 320.94 6.42902C319.756 6.42902 318.742 7.25512 318.742 8.90732V14.69H316.543V4.94203H316.882ZM335.143 10.2291C335.143 11.7161 335.989 13.0378 337.849 13.0378C339.033 13.0378 339.878 12.5422 340.216 11.3856H342.245C341.738 13.5335 339.878 14.69 337.849 14.69C334.805 14.69 333.114 12.5422 333.114 9.56821C333.114 6.75946 334.974 4.44637 337.849 4.44637C340.893 4.44637 342.922 7.25512 342.414 10.0639H335.143V10.2291ZM340.216 8.90732C340.216 7.58556 339.202 6.42902 337.68 6.42902C336.158 6.42902 335.143 7.58556 335.143 8.90732H340.216ZM344.105 4.94203H346.134V6.42902C346.811 5.4377 347.825 4.77681 349.178 4.77681C351.376 4.77681 352.729 5.93336 352.729 8.08122V14.69H350.531V8.57688C350.531 7.0899 349.854 6.42902 348.671 6.42902C347.149 6.42902 346.304 7.58556 346.304 8.90732V14.5248H344.105V4.94203ZM354.082 4.94203H355.773V2.13329H357.971V4.94203H360V6.59424H357.971V11.7161C357.971 12.5422 357.971 13.0378 358.985 13.0378C359.324 13.0378 359.662 13.0378 359.831 13.0378V14.69C359.324 14.69 358.816 14.8553 358.478 14.8553C356.28 14.8553 355.773 14.0292 355.773 12.377V6.59424H354.082V4.94203ZM252.288 28.899C252.288 25.925 254.148 23.7772 257.192 23.7772C260.405 23.7772 262.096 25.925 262.096 28.899C262.096 31.873 260.236 34.0208 257.192 34.0208C254.148 34.0208 252.288 31.873 252.288 28.899ZM260.067 28.899C260.067 27.2468 259.221 25.5946 257.192 25.5946C255.332 25.5946 254.318 27.2468 254.318 28.899C254.318 30.5512 255.163 32.3686 257.192 32.3686C259.221 32.3686 260.067 30.5512 260.067 28.899ZM263.11 24.1076H264.801V23.2815C264.801 20.8032 266.154 20.4728 267.507 20.4728C268.183 20.4728 268.69 20.4727 269.029 20.638V22.2902C268.69 22.2902 268.521 22.125 268.014 22.125C267.507 22.125 266.999 22.2902 266.999 23.1163V24.1076H268.859V25.7598H266.999V33.8556H264.801V25.7598H263.11V24.1076ZM284.754 24.6033C284.416 23.1163 283.401 21.9597 281.372 21.9597C278.498 21.9597 277.314 24.438 277.314 27.0816C277.314 29.5599 278.498 32.2034 281.372 32.2034C283.401 32.2034 284.585 30.7164 284.754 28.7338H287.121C286.952 31.873 284.754 34.0208 281.372 34.0208C277.314 34.0208 274.947 30.8816 274.947 27.0816C274.947 23.2815 277.314 20.1423 281.372 20.1423C284.416 20.1423 286.783 21.7945 287.121 24.6033H284.754ZM297.267 31.5425C297.267 32.0382 297.436 32.2034 297.774 32.2034C297.943 32.2034 298.112 32.2034 298.281 32.2034V33.6904C297.943 33.8556 297.267 33.8556 296.929 33.8556C296.083 33.8556 295.407 33.5252 295.238 32.6991C294.392 33.5252 293.04 33.8556 291.856 33.8556C290.165 33.8556 288.474 32.8643 288.474 31.0469C288.474 28.5686 290.503 28.2381 292.194 28.0729C293.716 27.7425 295.069 27.9077 295.069 26.7511C295.069 25.5946 293.885 25.4294 293.04 25.4294C291.856 25.4294 291.011 25.925 290.841 26.9163H288.643C288.812 24.438 291.01 23.7772 293.04 23.7772C294.9 23.7772 296.929 24.6033 296.929 26.5859V31.5425H297.267ZM295.238 28.899C294.561 29.3947 293.547 29.2294 292.532 29.3947C291.518 29.5599 290.841 29.8903 290.841 31.0469C290.841 32.0382 292.025 32.2034 292.871 32.2034C293.885 32.2034 295.238 31.7077 295.238 30.386V28.899ZM299.634 24.1076H301.663V25.5946C302.34 24.6033 303.354 23.9424 304.707 23.9424C306.905 23.9424 308.258 25.0989 308.258 27.2468V33.8556H306.06V27.7424C306.06 26.2555 305.383 25.5946 304.2 25.5946C302.678 25.5946 301.832 26.7511 301.832 28.0729V33.6904H299.634V24.1076ZM318.572 31.5425C318.572 32.0382 318.742 32.2034 319.08 32.2034C319.249 32.2034 319.418 32.2034 319.587 32.2034V33.6904C319.249 33.8556 318.572 33.8556 318.234 33.8556C317.389 33.8556 316.712 33.5252 316.543 32.6991C315.698 33.5252 314.345 33.8556 313.162 33.8556C311.471 33.8556 309.78 32.8643 309.78 31.0469C309.78 28.5686 311.809 28.2381 313.5 28.0729C315.022 27.7425 316.374 27.9077 316.374 26.7511C316.374 25.5946 315.191 25.4294 314.345 25.4294C313.162 25.4294 312.316 25.925 312.147 26.9163H309.949C310.118 24.438 312.316 23.7772 314.345 23.7772C316.205 23.7772 318.234 24.6033 318.234 26.5859V31.5425H318.572ZM316.374 28.899C315.698 29.3947 314.683 29.2294 313.669 29.3947C312.654 29.5599 311.978 29.8903 311.978 31.0469C311.978 32.0382 313.162 32.2034 314.007 32.2034C315.022 32.2034 316.374 31.7077 316.374 30.386V28.899ZM330.071 33.6904H328.042V32.3686C327.534 33.5252 326.182 33.8556 324.998 33.8556C321.954 33.8556 320.433 31.5425 320.433 28.7338C320.433 25.2641 322.631 23.7772 324.66 23.7772C325.843 23.7772 327.196 24.2728 327.873 25.2641V20.3075H330.071V33.6904ZM325.336 32.3686C327.196 32.3686 328.042 30.7164 328.042 28.899C328.042 26.7511 327.027 25.5946 325.336 25.5946C323.307 25.5946 322.631 27.412 322.631 29.0642C322.631 30.7164 323.476 32.3686 325.336 32.3686ZM340.724 31.5425C340.724 32.0382 340.893 32.2034 341.231 32.2034C341.4 32.2034 341.569 32.2034 341.738 32.2034V33.6904C341.4 33.8556 340.724 33.8556 340.385 33.8556C339.54 33.8556 338.864 33.5252 338.694 32.6991C337.849 33.5252 336.496 33.8556 335.313 33.8556C333.622 33.8556 331.931 32.8643 331.931 31.0469C331.931 28.5686 333.96 28.2381 335.651 28.0729C337.173 27.7425 338.525 27.9077 338.525 26.7511C338.525 25.5946 337.342 25.4294 336.496 25.4294C335.313 25.4294 334.467 25.925 334.298 26.9163H332.1C332.269 24.438 334.467 23.7772 336.496 23.7772C338.356 23.7772 340.385 24.6033 340.385 26.5859V31.5425H340.724ZM338.525 28.899C337.849 29.3947 336.834 29.2294 335.82 29.3947C334.805 29.5599 334.129 29.8903 334.129 31.0469C334.129 32.0382 335.313 32.2034 336.158 32.2034C337.173 32.2034 338.525 31.7077 338.525 30.386V28.899ZM107.978 13.5481H106.456L106.118 12.0611C104.765 13.5481 103.751 13.8785 102.06 13.8785C98.0018 13.8785 95.6345 10.7393 95.6345 6.93926C95.6345 3.13919 98.0018 0 102.06 0C105.104 0 107.471 1.48698 107.809 4.46095H105.442C105.273 2.64353 103.582 1.81742 101.891 1.81742C99.0163 1.81742 97.8327 4.29573 97.8327 6.93926C97.8327 9.41756 99.0163 12.0611 101.891 12.0611C104.258 12.0611 105.611 10.7393 105.78 8.42624H102.229V6.60882H107.978V13.5481ZM110.007 8.75668C110.007 5.78272 111.867 3.63485 114.911 3.63485C117.955 3.63485 119.815 5.78272 119.815 8.75668C119.815 11.7307 117.955 13.8785 114.911 13.8785C111.867 13.8785 110.007 11.7307 110.007 8.75668ZM117.616 8.75668C117.616 7.10448 116.771 5.45227 114.742 5.45227C112.882 5.45227 111.867 7.10448 111.867 8.75668C111.867 10.4089 112.713 12.2263 114.742 12.2263C116.771 12.2263 117.616 10.4089 117.616 8.75668ZM130.298 13.5481H128.1V12.2263C127.593 13.2176 126.409 13.8785 125.226 13.8785C122.689 13.8785 121.506 12.5568 121.506 10.0784V3.96529H123.704V9.91322C123.704 11.5654 124.38 12.2263 125.564 12.2263C127.424 12.2263 127.931 11.0698 127.931 9.58278V3.96529H130.129L130.298 13.5481ZM131.651 3.96529H134.018L136.555 11.4002L138.922 3.96529H141.12L137.569 13.5481H135.202L131.651 3.96529ZM143.826 9.25234C143.826 10.7393 144.671 12.0611 146.531 12.0611C147.715 12.0611 148.56 11.5654 148.898 10.4089H150.928C150.42 12.5567 148.56 13.7133 146.531 13.7133C143.488 13.7133 141.797 11.5654 141.797 8.59146C141.797 5.78271 143.657 3.46963 146.531 3.46963C149.575 3.46963 151.604 6.27837 151.097 9.08712H143.826V9.25234ZM148.898 7.93058C148.898 6.60882 147.884 5.45227 146.362 5.45227C144.84 5.45227 143.826 6.60882 143.826 7.93058H148.898ZM152.788 3.96529H154.817V5.78271C154.986 4.79139 156.338 3.63485 157.691 3.63485C158.199 3.63485 158.368 3.63485 158.537 3.63485V5.61749C158.199 5.61749 157.86 5.45227 157.522 5.45227C156 5.45227 154.817 6.60882 154.817 8.75668V13.3829H152.618L152.788 3.96529ZM159.551 3.96529H161.58V5.45227C162.257 4.46095 163.271 3.80007 164.624 3.80007C166.822 3.80007 168.175 4.95661 168.175 7.10448V13.7133H165.977V7.60014C165.977 6.11315 165.3 5.45227 164.117 5.45227C162.595 5.45227 161.749 6.60882 161.749 7.93058V13.5481H159.551V3.96529ZM172.233 9.25234C172.233 10.7393 173.079 12.0611 174.939 12.0611C176.122 12.0611 176.968 11.5654 177.306 10.4089H179.335C178.828 12.5567 176.968 13.7133 174.939 13.7133C171.895 13.7133 170.204 11.5654 170.204 8.59146C170.204 5.78271 172.064 3.46963 174.939 3.46963C177.982 3.46963 180.011 6.27837 179.504 9.08712H172.233V9.25234ZM177.306 7.93058C177.306 6.60882 176.291 5.45227 174.769 5.45227C173.248 5.45227 172.233 6.60882 172.233 7.93058H177.306ZM181.026 3.96529H183.055V5.28705C183.731 4.29573 184.577 3.63485 186.099 3.63485C187.282 3.63485 188.466 4.13051 188.804 5.28705C189.481 4.29573 190.495 3.63485 191.848 3.63485C193.877 3.63485 195.061 4.46095 195.061 6.93926V13.5481H192.862V7.93058C192.862 6.4436 192.693 5.28705 191.002 5.28705C189.481 5.28705 188.973 6.27838 188.973 7.93058V13.5481H186.775V7.43492C186.775 6.11316 186.437 5.45227 185.084 5.45227C183.9 5.45227 182.886 6.27838 182.886 7.93058V13.7133H180.688V3.96529H181.026ZM199.288 9.25234C199.288 10.7393 200.133 12.0611 201.993 12.0611C203.177 12.0611 204.022 11.5654 204.361 10.4089H206.39C205.882 12.5567 204.022 13.7133 201.993 13.7133C198.95 13.7133 197.259 11.5654 197.259 8.59146C197.259 5.78271 199.119 3.46963 201.993 3.46963C205.037 3.46963 207.066 6.27837 206.559 9.08712H199.288V9.25234ZM204.361 7.93058C204.361 6.60882 203.346 5.45227 201.824 5.45227C200.302 5.45227 199.288 6.60882 199.288 7.93058H204.361ZM208.25 3.96529H210.279V5.45227C210.955 4.46095 211.97 3.80007 213.322 3.80007C215.521 3.80007 216.873 4.95661 216.873 7.10448V13.7133H214.675V7.60014C214.675 6.11315 213.999 5.45227 212.815 5.45227C211.293 5.45227 210.448 6.60882 210.448 7.93058V13.5481H208.25V3.96529ZM218.057 3.96529H219.748V1.15654H221.946V3.96529H223.975V5.61749H221.946V10.7393C221.946 11.5654 221.946 12.0611 222.961 12.0611C223.299 12.0611 223.637 12.0611 223.806 12.0611V13.7133C223.299 13.7133 222.792 13.8785 222.453 13.8785C220.255 13.8785 219.748 13.0524 219.748 11.4002V5.61749H218.057V3.96529ZM105.104 32.7136H103.075V31.3919C102.567 32.5484 101.215 32.8789 100.031 32.8789C96.9872 32.8789 95.4654 30.5658 95.4654 27.757C95.4654 24.2874 97.4945 22.8004 99.6927 22.8004C100.876 22.8004 102.229 23.2961 102.905 24.2874V19.3308H105.104V32.7136ZM100.2 31.3919C102.06 31.3919 102.905 29.7397 102.905 27.9222C102.905 25.7744 101.891 24.6178 100.2 24.6178C98.1709 24.6178 97.4945 26.4353 97.4945 28.0875C97.4945 29.7397 98.34 31.3919 100.2 31.3919ZM116.095 32.7136H113.896V31.3919C113.389 32.3832 112.205 33.0441 111.022 33.0441C108.485 33.0441 107.302 31.7223 107.302 29.244V23.1309H109.5V29.0788C109.5 30.731 110.176 31.3919 111.36 31.3919C113.22 31.3919 113.727 30.2353 113.727 28.7483V23.1309H115.926V32.7136H116.095ZM133.173 23.6265C132.835 22.1395 131.82 20.983 129.791 20.983C126.917 20.983 125.733 23.4613 125.733 26.1048C125.733 28.5831 126.917 31.2267 129.791 31.2267C131.989 31.2267 133.004 29.7397 133.173 27.757H135.54C135.371 30.8962 133.004 33.2093 129.791 33.2093C125.733 33.2093 123.366 30.0701 123.366 26.27C123.366 22.47 125.733 19.3308 129.791 19.3308C132.835 19.3308 135.202 20.983 135.54 23.7917H133.173V23.6265ZM145.517 30.5658C145.517 31.0614 145.686 31.2267 146.024 31.2267C146.193 31.2267 146.362 31.2267 146.531 31.2267V32.7136C146.193 32.8789 145.517 32.8789 145.178 32.8789C144.333 32.8789 143.657 32.5484 143.487 31.7223C142.642 32.5484 141.289 32.8789 140.106 32.8789C138.415 32.8789 136.724 31.8875 136.724 30.0701C136.724 27.5918 138.753 27.2614 140.444 27.0961C141.966 26.7657 143.318 26.9309 143.318 25.7744C143.318 24.6178 142.135 24.4526 141.289 24.4526C140.106 24.4526 139.26 24.9483 139.091 25.9396H136.893C137.062 23.4613 139.26 22.8004 141.289 22.8004C143.149 22.8004 145.178 23.6265 145.178 25.6092V30.5658H145.517ZM143.318 27.9222C142.642 28.4179 141.627 28.2527 140.613 28.4179C139.598 28.5831 138.922 28.9136 138.922 30.0701C138.922 31.0614 140.106 31.2267 140.951 31.2267C141.966 31.2267 143.318 30.731 143.318 29.4092V27.9222ZM148.053 23.1309H150.082V24.6178C150.758 23.6265 151.773 22.9656 153.126 22.9656C155.324 22.9656 156.677 24.1222 156.677 26.27V32.8789H154.478V26.7657C154.478 25.2787 153.802 24.6178 152.618 24.6178C151.097 24.6178 150.251 25.7744 150.251 27.0961V32.7136H148.053V23.1309ZM166.822 30.5658C166.822 31.0614 166.991 31.2267 167.329 31.2267C167.499 31.2267 167.668 31.2267 167.837 31.2267V32.7136C167.499 32.8789 166.822 32.8789 166.484 32.8789C165.639 32.8789 164.962 32.5484 164.793 31.7223C163.948 32.5484 162.595 32.8789 161.411 32.8789C159.72 32.8789 158.029 31.8875 158.029 30.0701C158.029 27.5918 160.059 27.2614 161.749 27.0961C163.271 26.7657 164.624 26.9309 164.624 25.7744C164.624 24.6178 163.44 24.4526 162.595 24.4526C161.411 24.4526 160.566 24.9483 160.397 25.9396H158.199C158.368 23.4613 160.566 22.8004 162.595 22.8004C164.455 22.8004 166.484 23.6265 166.484 25.6092V30.5658H166.822ZM164.624 27.9222C163.948 28.4179 162.933 28.2527 161.919 28.4179C160.904 28.5831 160.228 28.9136 160.228 30.0701C160.228 31.0614 161.411 31.2267 162.257 31.2267C163.271 31.2267 164.624 30.731 164.624 29.4092V27.9222ZM178.49 32.7136H176.46V31.3919C175.953 32.5484 174.6 32.8789 173.417 32.8789C170.373 32.8789 168.851 30.5658 168.851 27.757C168.851 24.2874 171.049 22.8004 173.079 22.8004C174.262 22.8004 175.615 23.2961 176.291 24.2874V19.3308H178.49V32.7136ZM173.586 31.3919C175.446 31.3919 176.291 29.7397 176.291 27.9222C176.291 25.7744 175.277 24.6178 173.586 24.6178C171.557 24.6178 170.88 26.4353 170.88 28.0875C170.88 29.7397 171.726 31.3919 173.586 31.3919ZM188.973 30.5658C188.973 31.0614 189.142 31.2267 189.481 31.2267C189.65 31.2267 189.819 31.2267 189.988 31.2267V32.7136C189.65 32.8789 188.973 32.8789 188.635 32.8789C187.79 32.8789 187.113 32.5484 186.944 31.7223C186.099 32.5484 184.746 32.8789 183.562 32.8789C181.871 32.8789 180.18 31.8875 180.18 30.0701C180.18 27.5918 182.21 27.2614 183.9 27.0961C185.422 26.7657 186.775 26.9309 186.775 25.7744C186.775 24.6178 185.591 24.4526 184.746 24.4526C183.562 24.4526 182.717 24.9483 182.548 25.9396H180.35C180.519 23.4613 182.717 22.8004 184.746 22.8004C186.606 22.8004 188.635 23.6265 188.635 25.6092V30.5658H188.973ZM186.775 27.9222C186.099 28.4179 185.084 28.2527 184.07 28.4179C183.055 28.5831 182.379 28.9136 182.379 30.0701C182.379 31.0614 183.562 31.2267 184.408 31.2267C185.422 31.2267 186.775 30.731 186.775 29.4092V27.9222Z" fill="black"/>
</svg>
