<svg width="28" height="28" viewBox="0 0 28 28" fill="none" xmlns="http://www.w3.org/2000/svg">
<path d="M17 16.625H11C4.925 16.625 0 20.9344 0 26.25C0 27.2163 0.895625 28 2 28H26C27.1044 28 28 27.2163 28 26.25C28 20.9344 23.075 16.625 17 16.625ZM3.06188 25.375C3.55563 21.9242 6.925 19.25 11 19.25H17C21.0725 19.25 24.4438 21.927 24.9375 25.375H3.06188ZM14 14C18.4181 14 22 10.8659 22 7C22 3.13414 18.4181 0 14 0C9.58187 0 6 3.13414 6 7C6 10.8664 9.58125 14 14 14ZM14 2.625C16.7569 2.625 19 4.58773 19 7C19 9.41227 16.7569 11.375 14 11.375C11.2431 11.375 9 9.41172 9 7C9 4.58773 11.2437 2.625 14 2.625Z" fill="#1D5B90"/>
</svg>
