<svg width="8" height="11" viewBox="0 0 8 11" fill="none" xmlns="http://www.w3.org/2000/svg">
<path d="M0.285876 10.606C0.372154 10.6509 0.469024 10.6714 0.566089 10.6654C0.663154 10.6594 0.756749 10.6271 0.836827 10.5719L7.77039 5.77174C7.84124 5.72265 7.89913 5.65713 7.93912 5.58077C7.97911 5.50442 8 5.41951 8 5.33332C8 5.24713 7.97911 5.16222 7.93912 5.08587C7.89913 5.00952 7.84124 4.94399 7.77039 4.89491L0.836827 0.0947528C0.756811 0.039387 0.663173 0.00696588 0.566052 0.000999826C0.468932 -0.00496623 0.37203 0.0157502 0.285838 0.0609059C0.199647 0.106062 0.127451 0.173936 0.0770675 0.257179C0.026684 0.340423 3.28455e-05 0.435863 7.24456e-09 0.533167V10.1335C-1.60365e-05 10.2308 0.0266158 10.3263 0.077009 10.4096C0.127402 10.4929 0.199634 10.5609 0.285876 10.606Z" fill="#335075"/>
</svg>
